<?xml version="1.0" encoding="UTF-8"?>
<svg version="1.1" xmlns="http://www.w3.org/2000/svg" width="1000" height="1000">
<path d="M0 0 C1.30423082 2.35124675 2.39462208 4.59707231 3.4375 7.0625 C3.74316895 7.7733374 4.04883789 8.4841748 4.36376953 9.21655273 C15.58318945 36.26028962 14.72676251 66.40578241 4.01953125 93.375 C-11.65914621 130.62636194 -45.46991886 147.05457552 -79.12719727 165.17919922 C-85.8846654 168.82636705 -92.57930683 172.57177841 -99.25 176.375 C-108.38520158 181.5815588 -117.62356388 186.57447116 -126.90673828 191.50973511 C-138.06951951 197.44872448 -149.07289898 203.63904603 -160 210 C-156.87943917 212.4825401 -153.6390774 214.3588824 -150.1171875 216.22265625 C-148.95928711 216.83834473 -147.80138672 217.4540332 -146.60839844 218.08837891 C-145.69471497 218.57144501 -145.69471497 218.57144501 -144.76257324 219.06427002 C-141.56954028 220.75288329 -138.38253821 222.45280179 -135.1953125 224.15234375 C-134.5657666 224.48778198 -133.9362207 224.82322021 -133.28759766 225.16882324 C-128.41268106 227.77003926 -123.57011879 230.42387063 -118.75 233.125 C-111.97312756 236.92162918 -105.15083003 240.62776877 -98.3125 244.3125 C-89.41117199 249.11273318 -80.58500245 254.02905585 -71.80615234 259.04956055 C-66.67187035 261.97209109 -61.50562476 264.8064465 -56.26953125 267.54296875 C-44.29419317 273.80751682 -33.0518781 279.90205367 -23 289 C-21.78957031 290.06541016 -21.78957031 290.06541016 -20.5546875 291.15234375 C-1.44169397 309.03331505 10.85589947 335.38022614 12.12304688 361.5402832 C12.75252037 383.11702255 9.57049356 402.88314995 -1 422 C-13.14883563 416.18386452 -24.91183293 409.69139478 -36.68441772 403.15844727 C-37.62373642 402.6372229 -37.62373642 402.6372229 -38.58203125 402.10546875 C-39.5202623 401.58472778 -39.5202623 401.58472778 -40.47744751 401.0534668 C-46.52442592 397.70127867 -52.60254327 394.40769348 -58.6875 391.125 C-66.82392693 386.73105111 -74.92719067 382.28380225 -83.00390625 377.78125 C-89.36883459 374.23414916 -95.7461905 370.70955472 -102.125 367.1875 C-102.74823151 366.84330017 -103.37146301 366.49910034 -104.01358032 366.14447021 C-111.46380157 362.0314563 -118.92735142 357.94543676 -126.41821289 353.90673828 C-131.2850618 351.2826343 -136.14376661 348.64368766 -141 346 C-142.00885254 345.45214844 -143.01770508 344.90429688 -144.05712891 344.33984375 C-164.38022385 333.25744119 -181.96555202 321.68801557 -195 302 C-195.59554688 301.11054687 -196.19109375 300.22109375 -196.8046875 299.3046875 C-200.50132863 293.40649122 -203.27213012 287.29541403 -205.75 280.8125 C-206.03174072 280.09578125 -206.31348145 279.3790625 -206.60375977 278.640625 C-211.74984181 264.51231859 -212.48298866 249.72312946 -212.6171875 234.8515625 C-212.64176438 233.06048567 -212.66710067 231.26941912 -212.69314575 229.47836304 C-212.74406216 225.75222013 -212.78485948 222.0261435 -212.81835938 218.29980469 C-212.8617334 213.5811785 -212.93223756 208.86341548 -213.01067924 204.14525795 C-213.06866096 200.45421755 -213.11109272 196.76311291 -213.14926529 193.07181931 C-213.16914984 191.33465727 -213.19375778 189.59754118 -213.22369003 187.86052322 C-213.69939507 158.75402073 -206.81723471 131.74026244 -188 109 C-187.35289062 108.20078125 -186.70578125 107.4015625 -186.0390625 106.578125 C-174.67280829 93.12419145 -159.56517667 84.70171376 -144.3125 76.375 C-143.03224207 75.67238739 -141.75213392 74.96950179 -140.47216797 74.26635742 C-131.5590461 69.37541381 -122.6154338 64.54123558 -113.66577148 59.7175293 C-107.01961058 56.12460597 -100.43720151 52.43119532 -93.875 48.6875 C-84.36407449 43.26437192 -74.733117 38.09512593 -65.05889893 32.97207642 C-56.72134821 28.55403435 -48.44638008 24.05185965 -40.25 19.375 C-32.36841307 14.88918816 -24.46929 10.43740718 -16.51062012 6.08966064 C-14.78225766 5.14267428 -13.05952158 4.18544225 -11.33691406 3.22802734 C-10.29245117 2.66035645 -9.24798828 2.09268555 -8.171875 1.5078125 C-6.7811377 0.74428467 -6.7811377 0.74428467 -5.36230469 -0.03466797 C-3 -1 -3 -1 0 0 Z " fill="#1D4B0B" transform="translate(658,319)"/>
<path d="M0 0 C0.69213089 0.00315468 1.38426178 0.00630936 2.09736633 0.00955963 C3.7906781 0.01773437 5.48396784 0.03027278 7.17724609 0.04370117 C7.2475486 23.70615573 7.30033784 47.36859447 7.33268261 71.0311327 C7.34810477 82.01981424 7.36910461 93.00843062 7.40356445 103.99707031 C7.43361001 113.58269936 7.45285483 123.16828118 7.45951158 132.75395602 C7.46339833 137.82229031 7.47243401 142.89048958 7.49443626 147.95878029 C7.51504179 152.74483288 7.52103215 157.53069688 7.51656914 162.31678963 C7.51738372 164.05844402 7.52320427 165.80010578 7.53486252 167.54172134 C7.74756053 201.00325146 -1.84491648 229.98557133 -25.57275391 254.23120117 C-42.73983156 271.21378578 -67.70108445 283.62800955 -92.23413086 284.11083984 C-93.37325928 284.10286377 -94.5123877 284.0948877 -95.68603516 284.08666992 C-96.84014893 284.08046631 -97.9942627 284.0742627 -99.18334961 284.06787109 C-100.05435303 284.05989502 -100.92535645 284.05191895 -101.82275391 284.04370117 C-101.89303459 260.10320799 -101.94583508 236.16273042 -101.97819042 212.22215462 C-101.99361716 201.10452945 -102.01462592 189.98696862 -102.04907227 178.86938477 C-102.07910363 169.17206395 -102.09835933 159.47478977 -102.10501939 149.77742374 C-102.10890851 144.64931833 -102.11795969 139.52134625 -102.13994408 134.39328384 C-102.16052698 129.55224294 -102.16654435 124.71138844 -102.16207695 119.87030792 C-102.16289252 118.10727037 -102.16872684 116.34422564 -102.18037033 114.58122635 C-102.38554853 81.869338 -92.68750264 54.6614261 -70.24462891 30.47729492 C-55.52405185 15.68548927 -37.76134469 6.32392772 -17.44775391 1.73120117 C-16.3527356 1.47342896 -16.3527356 1.47342896 -15.2355957 1.21044922 C-10.14139903 0.15134742 -5.1911184 -0.04524685 0 0 Z " fill="#8CC342" transform="translate(416.82275390625,443.956298828125)"/>
<path d="M0 0 C16.15330422 18.85159883 24.7681824 47.50885142 24 72 C22.35959245 91.64477198 13.68352413 108.07725342 0 122 C-0.92039062 122.93972656 -0.92039062 122.93972656 -1.859375 123.8984375 C-11.62267753 133.11933433 -24.34628484 138.23394992 -36.56469727 143.32348633 C-51.96768504 149.78770414 -64.22162696 156.50259279 -71.03515625 172.41796875 C-71.73670739 174.26157988 -72.3762151 176.12864531 -73 178 C-73.33 178 -73.66 178 -74 178 C-75.95911742 147.16204057 -56.9111126 120.38393795 -38 98 C-37.12629428 96.96224615 -36.25259667 95.92448548 -35.37890625 94.88671875 C-34.46123408 93.79922883 -33.54326055 92.71199315 -32.625 91.625 C-32.16359619 91.07875977 -31.70219238 90.53251953 -31.22680664 89.96972656 C-28.91889972 87.24398473 -26.59700005 84.53301285 -24.2421875 81.84765625 C-17.12763305 73.67900011 -10.98763624 65.02198961 -5 56 C-8.05213174 58.35257692 -10.73132235 60.65738176 -13.1875 63.625 C-15.98812434 66.90764901 -18.92780295 69.96976011 -22 73 C-25.62881522 76.58489612 -29.0406286 80.262936 -32.35546875 84.13671875 C-34.00398752 86.00451793 -35.72303581 87.75455624 -37.5 89.5 C-51.61264878 103.45653541 -62.63180101 119.56974515 -72 137 C-76.8452057 132.1547943 -76.2698623 123.5815443 -76.32910156 117.13110352 C-76.32362305 116.07721436 -76.31814453 115.0233252 -76.3125 113.9375 C-76.30831055 112.83784912 -76.30412109 111.73819824 -76.29980469 110.60522461 C-76.06924843 93.86904786 -73.29857685 78.86782364 -62 66 C-61.49984375 65.40574219 -60.9996875 64.81148438 -60.484375 64.19921875 C-53.70601083 56.75328841 -44.32007297 51.99689107 -35.7734375 46.8515625 C-21.22910886 38.0577979 -8.04362207 30.06756628 -1.625 13.4375 C-0.81370859 8.97539724 -0.3456054 4.52015484 0 0 Z " fill="#1D4B0B" transform="translate(473,242)"/>
<path d="M0 0 C0.33 0 0.66 0 1 0 C1.08636719 0.7734375 1.17273438 1.546875 1.26171875 2.34375 C2.20657856 9.34784838 3.51902361 14.48587624 8 20 C8.70576172 20.87205078 8.70576172 20.87205078 9.42578125 21.76171875 C14.1941402 27.02702826 20.14829917 30.35447799 26.21337891 33.94091797 C39.58713004 41.86867589 51.92373322 49.64515913 56.70703125 65.31640625 C59.58304188 77.21357251 60.33773178 90.13250922 57 102 C56.34 102.66 55.68 103.32 55 104 C54.61070312 103.21238281 54.22140625 102.42476563 53.8203125 101.61328125 C46.96379899 88.26361785 37.82138216 77.49531923 27.54980469 66.64257812 C24.92873905 63.8646119 22.33981555 61.05707093 19.75 58.25 C19.2535498 57.71286377 18.75709961 57.17572754 18.24560547 56.62231445 C14.10445653 52.13388343 10.03073487 47.58792469 6 43 C11.16436817 52.03294942 17.58323052 59.49387217 24.45458984 67.24560547 C41.9344938 87.08930054 56.25634328 107.78216419 57 135 C55 134 55 134 54.32421875 132.14453125 C54.00904297 130.99017578 54.00904297 130.99017578 53.6875 129.8125 C50.96053527 121.32263937 45.42104189 117.38869129 38 113 C34.26970794 111.19869431 30.45882424 109.62881524 26.625 108.0625 C8.99301974 100.59465717 -5.36025972 91.33800186 -13.28515625 73.03125 C-20.37364437 54.12861503 -17.42781011 35.28180976 -9.50390625 17.07421875 C-6.63686099 11.21353144 -3.33935859 5.60150473 0 0 Z " fill="#86BC41" transform="translate(333,253)"/>
</svg>
